<svg width="50" height="50" viewBox="0 0 50 50" fill="none" xmlns="http://www.w3.org/2000/svg">
  <!-- Cute owl icon - larger, no background -->
  <!-- Soft curved ear tufts - closer together -->
  <path d="M17 7 Q16 3 18 4.5 Q20 6 19 8" fill="#5a3fa6"/>
  <path d="M33 7 Q34 3 32 4.5 Q30 6 31 8" fill="#5a3fa6"/>
  <!-- Head - rounder, larger -->
  <circle cx="25" cy="16" r="12" fill="#5a3fa6"/>
  <!-- Large expressive eyes -->
  <!-- Left eye -->
  <circle cx="19.5" cy="16" r="6" fill="#4db6ac"/>
  <circle cx="19.5" cy="16" r="4" fill="#1e1e1e"/>
  <circle cx="20.3" cy="15.5" r="1.6" fill="white"/>
  <circle cx="19" cy="15.2" r="0.8" fill="white"/>
  <!-- Right eye -->
  <circle cx="30.5" cy="16" r="6" fill="#4db6ac"/>
  <circle cx="30.5" cy="16" r="4" fill="#1e1e1e"/>
  <circle cx="31.3" cy="15.5" r="1.6" fill="white"/>
  <circle cx="30" cy="15.2" r="0.8" fill="white"/>
  <!-- Orange beak - smaller and cuter -->
  <path d="M25 24 L23 27 L27 27 Z" fill="#FF9800"/>
  <!-- Plump body -->
  <ellipse cx="25" cy="38" rx="10" ry="8" fill="#5a3fa6"/>
  <!-- Soft wings -->
  <ellipse cx="18" cy="38" rx="3.5" ry="6" fill="#4db6ac" opacity="0.3"/>
  <ellipse cx="32" cy="38" rx="3.5" ry="6" fill="#4db6ac" opacity="0.3"/>
</svg>
