<svg width="240" height="60" viewBox="0 0 240 60" fill="none" xmlns="http://www.w3.org/2000/svg">
  <!-- Cute owl - large size like text -->
  <!-- Soft curved ear tufts - closer together -->
  <path d="M15 8 Q14 4 16 5.5 Q18 7 17 9" fill="#5a3fa6"/>
  <path d="M35 8 Q36 4 34 5.5 Q32 7 33 9" fill="#5a3fa6"/>
  <!-- Head - large size -->
  <circle cx="25" cy="18" r="13" fill="#5a3fa6"/>
  <!-- Large expressive eyes -->
  <!-- Left eye -->
  <circle cx="19" cy="18" r="6" fill="#4db6ac"/>
  <circle cx="19" cy="18" r="4" fill="#1e1e1e"/>
  <circle cx="19.8" cy="17.5" r="1.5" fill="white"/>
  <circle cx="18.2" cy="17.2" r="0.8" fill="white"/>
  <!-- Right eye -->
  <circle cx="31" cy="18" r="6" fill="#4db6ac"/>
  <circle cx="31" cy="18" r="4" fill="#1e1e1e"/>
  <circle cx="31.8" cy="17.5" r="1.5" fill="white"/>
  <circle cx="30.2" cy="17.2" r="0.8" fill="white"/>
  <!-- Orange beak - smaller and cuter -->
  <path d="M25 26 L23 29 L27 29 Z" fill="#FF9800"/>
  <!-- Plump body -->
  <ellipse cx="25" cy="38" rx="9" ry="7" fill="#5a3fa6"/>
  <!-- Soft wings -->
  <ellipse cx="18" cy="38" rx="3" ry="5" fill="#4db6ac" opacity="0.3"/>
  <ellipse cx="32" cy="38" rx="3" ry="5" fill="#4db6ac" opacity="0.3"/>
  
  <!-- Text - large size like in image -->
  <text x="60" y="38" font-family="Lexend, system-ui, sans-serif" font-size="36" font-weight="700" fill="#4db6ac" letter-spacing="-0.5">CodinViec</text>
</svg>
